<?xml version="1.0" encoding="UTF-8"?>
<svg viewBox="0 0 425.88696 657.68567" xmlns="http://www.w3.org/2000/svg" xmlns:xlink="http://www.w3.org/1999/xlink">
 <defs>
  <linearGradient id="b">
   <stop stop-color="#ffe632" offset="0"/>
   <stop stop-color="#ff5232" offset="1"/>
  </linearGradient>
  <linearGradient id="a">
   <stop stop-color="#a5a5a5" offset="0"/>
   <stop offset="1"/>
  </linearGradient>
  <linearGradient id="h" x1="685.43" x2="725.28" gradientUnits="userSpaceOnUse" xlink:href="#b"/>
  <radialGradient id="f" cx="488.95" cy="582.85" r="167.56" gradientTransform="matrix(0 -1.9312 1.5527 -5.023e-6 -221 936.46)" gradientUnits="userSpaceOnUse" xlink:href="#a"/>
  <radialGradient id="g" cx="441.42" cy="734.65" r="59.255" gradientTransform="matrix(-1.6166 1.6104 -3.9228 -3.938 4772.7 2356.6)" gradientUnits="userSpaceOnUse" xlink:href="#a"/>
  <radialGradient id="d" cx="286.32" cy="688.9" r="59.255" gradientTransform="matrix(1.4619 -1.752 -4.0043 -3.3413 3754.9 3020.1)" gradientUnits="userSpaceOnUse" xlink:href="#a"/>
  <radialGradient id="e" cx="395.39" cy="618.06" r="82.915" gradientTransform="matrix(.91385 0 0 .73448 34.062 164.11)" gradientUnits="userSpaceOnUse" xlink:href="#b"/>
  <radialGradient id="c" cx="633.11" cy="-8.8811" r="123.55" gradientTransform="matrix(0 .83492 -1.6326 1.0055e-5 719.79 -28.595)" gradientUnits="userSpaceOnUse" xlink:href="#b"/>
 </defs>
 <g transform="translate(-504.84 -254.57)">
  <g transform="matrix(1 0 0 .97525 -24.244 337.56)">
   <path d="m693.55 507.27c-56.325 6.4594-120.93 57.235-95.25 68.308s100.2 15.692 114.29 2.7731c7.2359-6.6385 20.182-23.264 21.708-38.864 1.5278 15.599 14.436 32.227 21.671 38.864 14.081 12.919 88.644 8.3002 114.32-2.7731s-38.925-61.849-95.25-68.308c-29.004 3.1144-39.436 13.971-40.743 26.426-1.3069-12.455-11.739-23.312-40.743-26.426z" fill="url(#c)" fill-rule="evenodd" stroke="#000" stroke-width="6.182"/>
   <path d="m693.56 507.29c-27.646 3.1704-57.26 17.017-77.24 31.605 30.26 15.591 67.259 25.199 107.37 26.304 5.1394-7.533 9.7432-16.77 10.616-25.692 0.86564 8.8391 5.3617 17.993 10.433 25.488 39.448-1.8607 75.681-11.935 105.17-27.813-19.908-13.952-48.288-26.845-74.86-29.893-29.004 3.1144-39.436 13.971-40.743 26.426-1.307-12.455-11.739-23.312-40.743-26.426z" fill-opacity=".3137" fill-rule="evenodd"/>
   <path d="m925.41 325.78c-8e-3 28.277-5.062 56.54-14.781 82.662s-24.095 50.08-42.046 70.072-39.461 35.999-62.912 46.818-48.823 16.44-74.204 16.44-50.754-5.6211-74.204-16.44-44.961-26.827-62.912-46.818-32.327-43.95-42.046-70.072-14.773-54.385-14.781-82.662c-8e-3 -28.288 5.0336-56.567 14.745-82.704s24.085-40.113 42.037-60.119 39.469-36.026 62.927-46.854 48.841-16.453 74.233-16.453 50.775 5.6258 74.233 16.453 44.975 26.848 62.927 46.854 32.326 33.981 42.037 60.119 14.753 54.416 14.745 82.704z" fill="url(#f)" stroke="#000" stroke-linecap="round" stroke-width="6.182"/>
   <path d="m691.65 182c-26.866 0-48.687 27.971-48.687 62.436s21.821 62.436 48.687 62.436c15.788 0 29.799-9.6707 38.693-24.632 8.8934 14.972 22.935 24.632 38.73 24.632 26.866 0 48.687-27.971 48.687-62.436s-21.821-62.436-48.687-62.436c-15.793 0-29.836 9.6628-38.73 24.632-8.8944-14.958-22.907-24.632-38.693-24.632z" fill="#fff" stroke="#000" stroke-linecap="round" stroke-width="6.182"/>
   <path d="m827.33 433.81a94.022 104.74 0 0 1 -188.04 0 94.022 104.74 0 1 1 188.04 0z" fill="#fff" stroke="#000" stroke-linecap="round" stroke-width="6.182"/>
   <path d="m917.77 265.7c0.39377 5.6178 0.62233 11.276 0.62233 17.006 0 119.27-86.921 216.06-193.98 216.06-88.348 0-162.91-65.919-186.29-155.99 7.8007 111.32 91.405 199.05 193.32 199.05 107.06 0 193.98-96.793 193.98-216.06 0-20.842-2.6997-40.997-7.6507-60.071z" fill-opacity=".3137"/>
   <path d="m732.67 289.69c-16.961 0-35.396 17.208-34.659 28.076s30.234 56.152 36.871 56.152 32.447-44.378 31.709-57.058-22.86-28.076-33.922-27.17z" fill-opacity=".3137" fill-rule="evenodd"/>
   <path d="m721.83 255.44a12.168 13.555 0 1 1 -24.335 0 12.168 13.555 0 1 1 24.335 0z" stroke="#000" stroke-linecap="round" stroke-width="6.182"/>
   <path d="m765.39 255.44a12.168 13.555 0 1 1 -24.335 0 12.168 13.555 0 1 1 24.335 0z" stroke="#000" stroke-linecap="round" stroke-width="6.182"/>
  </g>
  <g transform="matrix(1.2155 -.08381 .08381 1.2155 -1106.6 331.62)" fill-rule="evenodd" stroke="#000" stroke-width="5">
   <path d="m1592.6 353.74c-48.111 17.3 14.163 94.143-37.819 161.19-9.6084 12.393 57.868 2.0908 81.723-66.585 23.198-66.786 1.1324-107.54-43.904-94.607z" fill="#fff"/>
   <path d="m1592.6 353.74c-48.111 17.3 42.588 102.12-37.819 161.19-22.626 16.622 57.868 2.0908 81.723-66.585 23.198-66.786 1.1324-107.54-43.904-94.607z" fill="url(#d)"/>
  </g>
  <path d="m707.75 610.05c-16.961 0-35.396 15.609-34.659 25.467s30.234 50.935 36.871 50.935 32.447-40.255 31.709-51.756-22.86-25.467-33.922-24.646z" fill="url(#h)" fill-rule="evenodd" stroke="#000" stroke-width="6.182"/>
  <g transform="matrix(.85419 -.86875 .86875 .85419 -919.79 1485.3)" fill-rule="evenodd" stroke="#000" stroke-width="5">
   <path d="m1344.6 353.74c48.111 17.3-14.164 94.143 37.819 161.19 9.6084 12.393-57.868 2.0908-81.723-66.585-23.198-66.786-1.1323-107.54 43.904-94.607z" fill="#fff"/>
   <path d="m1344.6 353.74c48.111 17.3-42.588 102.12 37.819 161.19 22.626 16.622-57.868 2.0908-81.723-66.585-23.198-66.786-1.1323-107.54 43.904-94.607z" fill="url(#g)"/>
  </g>
 </g>
 <g transform="translate(-161.86 -394.74)" stroke="#2d2d2d" stroke-linecap="round" stroke-linejoin="round" stroke-width="7.3293">
  <path d="m474.65 633.74c-43.418-79.932-120.38-86.968-158.51-72.863 8.292-48.195 31.502-105.68 30.679-157.23 87.49-19.453 148.5 16.604 191.74 85.646-42.514 61.873-62.356 114.34-74.141 191.74-67.722-63.84-109.04-111.14-168.75-122.63-66.259-12.741-137.4 39.916-50.961 79.617 29.648-23.996 53.255-28.249 96.998-0.45274 64.808 41.63 129.76 83.674 171.29 58.802 33.916-13.877 22.202-57.303-38.349-62.637z" fill="#5b5b5b"/>
  <path d="m350.89 555.09c-13.256 0.075-25.214 2.2764-34.747 5.8027l7.1436 5.7796c46.097 18.896 84.327 60.813 141.14 114.37 2.6518-17.418 5.7057-33.566 9.3398-48.849-32.604-58.707-83.458-77.323-122.87-77.1zm122.87 77.1c0.28968 0.5216 0.59173 1.021 0.8785 1.5489-0.22013-0.80195-0.44877-1.5834-0.67044-2.3812-0.0668 0.27865-0.14167 0.55303-0.20806 0.83227z" fill="url(#e)"/>
 </g>
</svg>
