<?xml version="1.0" encoding="UTF-8"?>
<svg viewBox="0 0 136.14583 135.10413" xmlns="http://www.w3.org/2000/svg" xmlns:xlink="http://www.w3.org/1999/xlink">
 <defs>
  <clipPath id="ao">
   <path id="j" d="m55.8,12 .76.16c8.84-2.94 28.68,8.64 24.26,18.96-1.12,1.62-.93,4.5.42,6.31l-24.81,24.82c-1.39-1.39-4.48-1.36-5.9,0l-41.03,39.38c-3.74,3.59-.8,6.64.78,8.25l7.36,7.36c1.61,1.6 5.86,3.76 8.88.56l38.72-40.81c1.35-1.42 1.36-4.47 0-5.87 0,0 .01-.02 0-.02l24.91-24.9c2.63,2.37 5.11383,2.57485 7.47,1.93 4.55057-1.24543 7.08725,3.20664 9.81,6.46l-1.23,1.21c-1.82,1.84-1.65,4.94.39,6.98s5.15,2.21 6.97.39l8.14-8.13c1.82-1.84 1.65-4.94-.4-6.97-1.84-1.85-4.51-2.09-6.37-.77-5.58-6.26-2.65-7.2-10.01-15.35l-13.79-14.09c-9.93-9.74-22.83-9.73-35.33-5.86z"/>
  </clipPath>
  <filter id="an">
   <feGaussianBlur stdDeviation="1.192"/>
  </filter>
  <filter id="al">
   <feGaussianBlur stdDeviation=".4963"/>
  </filter>
  <filter id="am" x="-.02086" y="-.13124" width="1.0417" height="1.2625">
   <feGaussianBlur stdDeviation="1.4949"/>
  </filter>
  <filter id="n" x="-.12918" y="-.19686" width="1.2584" height="1.3937"/>
  <linearGradient id="m">
   <stop stop-color="#747474" offset="0"/>
   <stop stop-color="#e8e8e8" offset="1"/>
  </linearGradient>
  <linearGradient id="l">
   <stop stop-color="#a5a5a5" offset="0"/>
   <stop offset="1"/>
  </linearGradient>
  <linearGradient id="i">
   <stop offset="0"/>
   <stop stop-opacity="0" offset="1"/>
  </linearGradient>
  <linearGradient id="c">
   <stop stop-color="#fff" offset="0"/>
   <stop stop-color="#fff" stop-opacity="0" offset="1"/>
  </linearGradient>
  <linearGradient id="b">
   <stop stop-color="#ccc" offset="0"/>
   <stop stop-color="#1a1a1a" offset=".2495"/>
   <stop stop-color="#fff" offset=".6232"/>
   <stop stop-color="#666" offset="1"/>
  </linearGradient>
  <linearGradient id="f" x1="65.394" x2="66.866" y1="374.71" y2="374.98" gradientUnits="userSpaceOnUse">
   <stop stop-color="#999" stop-opacity="0" offset="0"/>
   <stop stop-color="#a7a7a7" offset=".2626"/>
   <stop stop-color="#f8f8f8" offset="1"/>
  </linearGradient>
  <linearGradient id="ak" x1="211.71" x2="215.69" gradientUnits="userSpaceOnUse">
   <stop stop-color="#ffb142" offset="0"/>
   <stop stop-color="#c87600" offset="1"/>
  </linearGradient>
  <linearGradient id="ac" x1="189.08" x2="171.57" y1="584.81" y2="551.8" gradientUnits="userSpaceOnUse">
   <stop stop-color="#004" offset="0"/>
   <stop stop-color="#00006d" offset="1"/>
  </linearGradient>
  <linearGradient id="ab" x1="134.38" x2="227.2" y1="558.44" y2="566.97" gradientUnits="userSpaceOnUse">
   <stop stop-color="#3e3ecf" offset="0"/>
   <stop stop-color="#16166a" offset="1"/>
  </linearGradient>
  <linearGradient id="aa" x1="191.12" x2="154.13" y1="614.39" y2="517.96" gradientUnits="userSpaceOnUse">
   <stop stop-color="#040463" offset="0"/>
   <stop stop-color="#1b1bbb" offset="1"/>
  </linearGradient>
  <linearGradient id="k" x1="270.9" x2="261.1" y1="469.55" y2="498.48" gradientUnits="userSpaceOnUse">
   <stop stop-color="#d7d7d7" offset="0"/>
   <stop stop-color="#d7d7d7" stop-opacity="0" offset="1"/>
  </linearGradient>
  <linearGradient id="a" x1="51.264" x2="76.986" gradientUnits="userSpaceOnUse" xlink:href="#b"/>
  <linearGradient id="h" x1="54.997" x2="78.591" y1="380.7" y2="369.4" gradientUnits="userSpaceOnUse" xlink:href="#b"/>
  <linearGradient id="g" x1="54.517" x2="74.345" y1="371.56" y2="376.17" gradientUnits="userSpaceOnUse" xlink:href="#b"/>
  <linearGradient id="e" x1="17.667" x2="112.13" gradientUnits="userSpaceOnUse" xlink:href="#b"/>
  <linearGradient id="d" x1="-10.5" x2="113.5" y1="42.862" y2="130.36" gradientUnits="userSpaceOnUse" xlink:href="#b"/>
  <linearGradient id="aj" x1="2483" x2="2375.5" y1="6145.3" y2="6037.5" gradientUnits="userSpaceOnUse" xlink:href="#i"/>
  <linearGradient id="ai" x1="577.03" x2="626.1" gradientTransform="matrix(.0775,.0775,-.36,.36,78.84,-44.8)" gradientUnits="userSpaceOnUse" xlink:href="#c"/>
  <linearGradient id="ah" x2="0" y1="288.57" y2="368.27" gradientTransform="matrix(.3,.3,-.09,.09,78.84,-44.8)" gradientUnits="userSpaceOnUse" xlink:href="#c"/>
  <linearGradient id="ag" x2="0" y1="62.74" y2="-1.72" gradientTransform="matrix(.33,.33,-.0944,.0944,9.03,-48.1)" gradientUnits="userSpaceOnUse" xlink:href="#c"/>
  <linearGradient id="af" x1="543.1" x2="419.88" gradientTransform="matrix(.0998,.0998,-.28,.28,78.84,-44.8)" gradientUnits="userSpaceOnUse" xlink:href="#i"/>
  <linearGradient id="ae" x1="512.7" x2="615.59" y1="254.36" y2="254.83" gradientTransform="matrix(.0807,.0775,-.35,.36,77.14,-45.89)" gradientUnits="userSpaceOnUse" xlink:href="#c"/>
  <linearGradient id="ad" x1="637.03" x2="638.3" y1="69.99" y2="118.3" gradientTransform="matrix(.1,.1,-.22,.2,75.6,-33.53)" gradientUnits="userSpaceOnUse" xlink:href="#c"/>
  <linearGradient id="z" x1="181.78" x2="177.35" y1="583.33" y2="581.29" gradientUnits="userSpaceOnUse" xlink:href="#m"/>
  <linearGradient id="y" x1="1415.4" x2="1449.1" gradientUnits="userSpaceOnUse" xlink:href="#i"/>
  <linearGradient id="x" x1="887.46" x2="921.13" gradientUnits="userSpaceOnUse" xlink:href="#i"/>
  <linearGradient id="w" x1="166.2" x2="158.66" y1="561.97" y2="561.26" gradientUnits="userSpaceOnUse" xlink:href="#m"/>
  <linearGradient id="v" x1="202.7" x2="191.82" y1="561.07" y2="563.04" gradientUnits="userSpaceOnUse" xlink:href="#m"/>
  <radialGradient id="u" cx="414.68" cy="-8.8805" r="123.55" gradientTransform="matrix(-1.8232e-6 .27968 -.60927 0 101.73 -39.26)" gradientUnits="userSpaceOnUse">
   <stop stop-color="#ffb142" offset="0"/>
   <stop stop-color="#ffb141" offset=".8868"/>
   <stop stop-color="#c87600" offset="1"/>
  </radialGradient>
  <radialGradient id="q" cx="543.99" cy="389.09" r="40.927" gradientTransform="matrix(.80329 -.28778 .17566 .43473 -297.92 341.1)" gradientUnits="userSpaceOnUse">
   <stop stop-color="#f81515" offset="0"/>
   <stop stop-color="#c60606" offset="1"/>
  </radialGradient>
  <radialGradient id="p" cx="545.13" cy="391.26" r="3.8643" gradientTransform="matrix(-.00219 .25546 -.65669 -.00499 469.57 210)" gradientUnits="userSpaceOnUse">
   <stop stop-color="#fff" offset="0"/>
   <stop stop-color="#c6c6c6" offset="1"/>
  </radialGradient>
  <radialGradient id="o" cx="546.78" cy="462.99" r="46.651" gradientTransform="matrix(.9754 .00766 -.00416 .52367 -320.21 135.62)" gradientUnits="userSpaceOnUse">
   <stop stop-color="#060000" offset="0"/>
   <stop stop-color="#a40000" offset="1"/>
  </radialGradient>
  <radialGradient id="t" cx="610.46" cy="483.45" r="167.56" gradientTransform="matrix(0 -.48219 .4319 -1.2542e-6 -151.97 551.35)" gradientUnits="userSpaceOnUse" xlink:href="#l"/>
  <radialGradient id="s" cx="380.26" cy="622.49" r="59.255" gradientTransform="matrix(0 -.74351 .66041 0 -364.7 582.13)" gradientUnits="userSpaceOnUse" xlink:href="#l"/>
  <radialGradient id="r" cx="371.45" cy="647.69" r="59.255" gradientTransform="matrix(0 -.74351 -.66041 0 552.03 582.13)" gradientUnits="userSpaceOnUse" xlink:href="#l"/>
 </defs>
 <g transform="translate(-133.36 -345.9)">
  <g transform="matrix(.92298 0 0 1 127.72 68.839)" fill-rule="evenodd">
   <path d="m81.781 385.54c-15.668 1.6128-33.638 14.291-26.495 17.056s27.873 3.9181 31.79 0.69241c2.0127-1.6576 5.6138-5.8087 6.0382-9.704 0.42497 3.8949 4.0155 8.0466 6.0281 9.704 3.9169 3.2257 24.658 2.0724 31.8-0.69241s-10.827-15.443-26.495-17.056c-8.0678 0.77761-10.97 3.4884-11.333 6.5983-0.36356-3.1099-3.2654-5.8207-11.333-6.5983z" fill="url(#u)" stroke="#000" stroke-width="1.5639"/>
   <path d="m81.784 385.55c-7.69 0.79161-15.927 4.249-21.485 7.8915 8.4173 3.8928 18.709 6.2918 29.865 6.5678 1.4296-1.8809 2.7102-4.1871 2.9529-6.415 0.24081 2.207 1.4914 4.4927 2.902 6.3641 10.973-0.4646 21.052-2.9801 29.254-6.9445-5.5378-3.4836-13.432-6.7029-20.823-7.4638-8.0678 0.77762-10.97 3.4884-11.333 6.5983-0.36356-3.1099-3.2654-5.8207-11.333-6.5983z" fill-opacity=".3137"/>
  </g>
  <g transform="matrix(.92298 0 0 1 127.72 68.839)">
   <path d="m146.28 340.23a53.948 53.948 0 0 1 -107.9 0 53.948 53.948 0 1 1 107.9 0z" fill="url(#t)" stroke="#000" stroke-linecap="round" stroke-width="1.5639"/>
   <path d="m118.99 367.2a26.153 26.153 0 1 1 -52.307 0 26.153 26.153 0 1 1 52.307 0z" fill="#fff" stroke="#000" stroke-linecap="round" stroke-width="1.6292"/>
   <path d="m144.15 325.23c0.10951 1.4027 0.1731 2.8155 0.1731 4.2461 0 29.779-24.178 53.947-53.957 53.947-24.575 0-45.316-16.459-51.819-38.948 2.1699 27.795 25.426 49.701 53.774 49.701 29.779 0 53.957-24.168 53.957-53.947 0-5.2041-0.75099-10.237-2.1282-14.999z" fill-opacity=".3137"/>
  </g>
  <g transform="translate(1.0682 -1.3352)">
   <path d="m226.20445,407.20617c-.0531.007-.10515.0481-.15625.0625-.0532-.00081-.10312-.0381-.15625-.0313-.95793.12439-1.63202,1.5059-1.65625,3.25l-12.84375,1.65625-11.15625-3.09375-1.5.65625h-.0313l.0937.125 .875,1.28125 6.28125,1.75-7.46875.96875-1.1875,1.25-.0625.0313 .15625.0937 1.375.84375 12.71875-1.65625 12,3.34375c-.2071,1.63586.21264,3.00456 1.09375,3.25 .0366.0102.0878-.006.125,0 .0165.008.0143.0242.0313.0313h.0313l.125.0313c1.06535.29675 2.39087-1.14413 2.96875-3.21875 .29791-1.06952.33504-2.0875.15625-2.875 .69171-.70143 1.03474-2.22606.8125-3.9375-.29179-2.24697-1.47114-3.96233-2.625-3.8125zm-1.65625,5.5c.14715.52179.33301.97808.5625,1.375-.40094.39599-.76819.92519-1.0625,1.59375l-7.125-1.96875 7.625-1z" opacity=".3729" stroke="#000" stroke-width="1.6318"/>
   <g transform="matrix(.08132 .62622 -.62622 .08132 473.52 174.29)">
    <path d="m318.90634,433.12522c-3.58815,0-6.5,1.50118-6.5,3.34375 0,.0848.0504.16683.0625.25 .001.01-.002.0213 0,.0313-.0121.0833-.0625.16516-.0625.25 0,1.5297 2.01601,2.82503 4.75,3.21875v41.15625l1.71875,2.125 .0313.0625 .15625-.1875 1.625-2v-41.15625c2.71817-.39895 4.71875-1.69482 4.71875-3.21875 0-.0632-.0245-.12512-.0313-.1875 .006-.0303-.004-.0632 0-.0937-.003-.0203.004-.0423 0-.0625 .007-.0624.0313-.12426.0313-.1875 0-1.84257-2.91186-3.34375-6.5-3.34375z" stroke="#000" stroke-width="2.584"/>
    <g transform="matrix(.13699 0 0 .16896 310.13 418.69)">
     <path d="m51.272 371.08 12.818 12.818 12.818-12.818v-262.77h-25.636z" fill="url(#a)"/>
     <path d="m67.156 371.09h-15.875l12.812 12.812z" fill="url(#h)"/>
     <path d="m51.281 108.31v262.78h25.625v-262.78h-25.625z" fill="url(#a)"/>
     <path d="m67.142 371.09-3.0796 12.781 0.03125 0.0312 12.812-12.812z" fill="url(#g)"/>
     <path d="m65.938 371.09-2.1875 12.469 0.3125 0.3125 0.03125 0.0312 1-1 2.625-11.812h-1.7812z" fill="url(#f)"/>
     <path d="m51.272 371.08 12.818 12.818 12.818-12.818v-262.77h-25.636z" fill="url(#a)"/>
     <path d="m67.156 371.09h-15.875l12.812 12.812z" fill="url(#h)"/>
     <path d="m51.281 108.31v262.78h25.625v-262.78h-25.625z" fill="url(#a)"/>
     <path d="m67.142 371.09-3.0796 12.781 0.03125 0.0312 12.812-12.812z" fill="url(#g)"/>
     <path d="m65.938 371.09-2.1875 12.469 0.3125 0.3125 0.03125 0.0312 1-1 2.625-11.812h-1.7812z" fill="url(#f)"/>
    </g>
    <g transform="matrix(.13699 0 0 .13699 310.13 422.16)" fill-rule="evenodd">
     <path transform="translate(0,4)" d="m111.52 104.47c0 13.451-21.234 24.354-47.427 24.354s-47.427-10.904-47.427-24.354 21.234-24.354 47.427-24.354 47.427 10.904 47.427 24.354z" fill="url(#e)"/>
     <path d="m111.52 104.47c0 13.451-21.234 24.354-47.427 24.354s-47.427-10.904-47.427-24.354 21.234-24.354 47.427-24.354 47.427 10.904 47.427 24.354z" fill="url(#d)"/>
     <path transform="translate(0,4)" d="m111.52 104.47c0 13.451-21.234 24.354-47.427 24.354s-47.427-10.904-47.427-24.354 21.234-24.354 47.427-24.354 47.427 10.904 47.427 24.354z" fill="url(#e)"/>
     <path d="m111.52 104.47c0 13.451-21.234 24.354-47.427 24.354s-47.427-10.904-47.427-24.354 21.234-24.354 47.427-24.354 47.427 10.904 47.427 24.354z" fill="url(#d)"/>
    </g>
   </g>
   <g transform="matrix(-.16105 .57819 -.57819 -.16105 529.04 301.43)">
    <path d="m318.90634,433.12522c-3.58815,0-6.5,1.50118-6.5,3.34375 0,.0848.0504.16683.0625.25 .001.01-.002.0213 0,.0313-.0121.0833-.0625.16516-.0625.25 0,1.5297 2.01601,2.82503 4.75,3.21875v41.15625l1.71875,2.125 .0313.0625 .15625-.1875 1.625-2v-41.15625c2.71817-.39895 4.71875-1.69482 4.71875-3.21875 0-.0632-.0245-.12512-.0313-.1875 .006-.0303-.004-.0632 0-.0937-.003-.0203.004-.0423 0-.0625 .007-.0624.0313-.12426.0313-.1875 0-1.84257-2.91186-3.34375-6.5-3.34375z" stroke="#000" stroke-width="2.6325"/>
    <g transform="matrix(.13699 0 0 .16896 310.13 418.69)">
     <path d="m51.272 371.08 12.818 12.818 12.818-12.818v-262.77h-25.636z" fill="url(#a)"/>
     <path d="m67.156 371.09h-15.875l12.812 12.812z" fill="url(#h)"/>
     <path d="m51.281 108.31v262.78h25.625v-262.78h-25.625z" fill="url(#a)"/>
     <path d="m67.142 371.09-3.0796 12.781 0.03125 0.0312 12.812-12.812z" fill="url(#g)"/>
     <path d="m65.938 371.09-2.1875 12.469 0.3125 0.3125 0.03125 0.0312 1-1 2.625-11.812h-1.7812z" fill="url(#f)"/>
     <path d="m51.272 371.08 12.818 12.818 12.818-12.818v-262.77h-25.636z" fill="url(#a)"/>
     <path d="m67.156 371.09h-15.875l12.812 12.812z" fill="url(#h)"/>
     <path d="m51.281 108.31v262.78h25.625v-262.78h-25.625z" fill="url(#a)"/>
     <path d="m67.142 371.09-3.0796 12.781 0.03125 0.0312 12.812-12.812z" fill="url(#g)"/>
     <path d="m65.938 371.09-2.1875 12.469 0.3125 0.3125 0.03125 0.0312 1-1 2.625-11.812h-1.7812z" fill="url(#f)"/>
    </g>
    <g transform="matrix(.13699 0 0 .13699 310.13 422.16)" fill-rule="evenodd">
     <path transform="translate(0,4)" d="m111.52 104.47c0 13.451-21.234 24.354-47.427 24.354s-47.427-10.904-47.427-24.354 21.234-24.354 47.427-24.354 47.427 10.904 47.427 24.354z" fill="url(#e)"/>
     <path d="m111.52 104.47c0 13.451-21.234 24.354-47.427 24.354s-47.427-10.904-47.427-24.354 21.234-24.354 47.427-24.354 47.427 10.904 47.427 24.354z" fill="url(#d)"/>
     <path transform="translate(0,4)" d="m111.52 104.47c0 13.451-21.234 24.354-47.427 24.354s-47.427-10.904-47.427-24.354 21.234-24.354 47.427-24.354 47.427 10.904 47.427 24.354z" fill="url(#e)"/>
     <path d="m111.52 104.47c0 13.451-21.234 24.354-47.427 24.354s-47.427-10.904-47.427-24.354 21.234-24.354 47.427-24.354 47.427 10.904 47.427 24.354z" fill="url(#d)"/>
    </g>
   </g>
  </g>
  <path d="m203 373.17c-6.8975 0-12.5 6.9841-12.5 15.589s5.6022 15.589 12.5 15.589c4.0535 0 7.6505-2.4146 9.934-6.1503 2.2833 3.7383 5.8882 6.1503 9.9434 6.1503 6.8975 0 12.5-6.9841 12.5-15.589s-5.6022-15.589-12.5-15.589c-4.0547 0-7.66 2.4127-9.9434 6.1503-2.2835-3.7348-5.881-6.1503-9.934-6.1503z" fill="#fff" stroke="#000" stroke-linecap="round" stroke-width="1.5652"/>
  <path d="m213.53 400.05c-4.3545 0-9.0876 4.2966-8.8983 7.0102s7.7623 14.02 9.4663 14.02 8.3303-11.081 8.141-14.247-5.8691-7.0102-8.709-6.7841z" fill-opacity=".3137" fill-rule="evenodd"/>
  <path d="m212.84 397.34c-4.3545 0-9.0876 3.8974-8.8983 6.3588s7.7624 12.718 9.4663 12.718 8.3303-10.051 8.141-12.923-5.8691-6.3588-8.709-6.1537z" fill="url(#ak)" fill-rule="evenodd" stroke="#000" stroke-width="1.5652"/>
  <path d="m210.75 391.5a3.1239 3.3846 0 0 1 -6.2477 0 3.1239 3.3846 0 1 1 6.2477 0z" stroke="#000" stroke-linecap="round" stroke-width="1.5652"/>
  <path d="m221.93 391.5a3.1239 3.3846 0 1 1 -6.2477 0 3.1239 3.3846 0 1 1 6.2477 0z" stroke="#000" stroke-linecap="round" stroke-width="1.5652"/>
  <g transform="translate(1.3352 -3.2045)">
   <path d="m241.88 421.69-0.29057 0.0902c-3.5556-0.82316-10.87 4.4197-8.7684 8.2831 0.49614 0.59087 0.52744 1.7211 0.0671 2.4765l10.585 8.7727c0.49128-0.59303 1.6976-0.69443 2.3012-0.21595l1.4965-0.60663c-2.6942 5.6924-3.3217 7.148-6.0464 8.228l-0.64786-1.3338c-0.57853-0.50444-0.69407-1.6937-0.21485-2.2895 0 0-5e-3 -7e-3 -7.4e-4 -8e-3l-10.627-8.8003c-0.93906 1.0207-1.9004 1.1915-2.843 1.0262-1.8205-0.31921-2.647 1.5101-3.5898 2.8787l0.52404 0.42693c0.77722 0.65106 0.82438 1.8664 0.10336 2.7368s-1.9278 1.0505-2.7043 0.40723l-3.4725-2.8731c-0.77722-0.65106-0.82438-1.8664-0.0991-2.7332 0.64996-0.78893 1.6826-0.98026 2.4564-0.53349 1.9473-2.6459 0.77008-2.9053 3.3425-6.3535l4.8629-6.0004c3.5166-4.1624 8.5485-4.6307 13.566-3.5788z" opacity=".339" stroke="#000" stroke-linejoin="round" stroke-width="2.2722"/>
   <g transform="matrix(-.39004 .0366 .0366 .39004 262.72 412.76)">
    <use class="outline-big" width="128" height="128" stroke="#000" stroke-linejoin="round" stroke-width="5.8" xlink:href="#j"/>
    <use class="outline-small stroke-aluminium5" width="128" height="128" opacity=".5" stroke="#000" stroke-linejoin="round" stroke-width="4" xlink:href="#j"/>
    <path class="aluminium2" d="m82.92 35.75-29.45 29.45 8.83 8.83 29.45-29.44-8.83-8.84z" fill="#d3d7cf"/>
    <path class="specularity" d="m88.93 41.76-29.45 29.44 2.82 2.83 29.45-29.44-2.82-2.83z" fill="url(#aj)" opacity=".5"/>
    <path d="m86.46 37.04-29.33 29.33 3.79 3.79 28.58-30.08-3.04-3.04z" fill="url(#ai)"/>
    <path class="aluminium6" d="m55.8,12 .76.16c8.84-2.94 28.68,8.64 24.26,18.96-1.12,1.62-.93,4.5.42,6.31l8.91,8.77c2.63,2.37 5.11,2.57 7.47,1.93 4.55-1.23 7.08,3.2 9.81,6.46l-1.23,1.21c-1.82,1.84-1.65,4.94.39,6.98s5.15,2.21 6.97.39l8.14-8.13c1.82-1.84 1.65-4.94-.4-6.97-1.84-1.85-4.51-2.09-6.37-.77-5.58-6.26-2.65-7.2-10.01-15.35l-13.79-14.09c-9.93-9.74-22.83-9.73-35.33-5.86z" fill="#2e3436"/>
    <path class="specularity" d="m114.93 47.3c-5.58-6.26-2.65-7.2-10.01-15.35l-13.79-14.09c-5.69-5.58-12.36-7.96-19.36-8.26l41.13 41.53 2.9754-2.73-0.94535-1.1z" fill="url(#ah)" opacity=".5"/>
    <path class="low-specularity" d="m81.45,28c.05,1-.17934,2-.65,3.12-1.1,1.62-.91,4.5.44,6.31l8.91,8.77c2.63,2.37 5.11,2.57 7.47,1.93 1.08-.33 2.06-.27 2.98,0 2.8.77-19.16-20.55-19.15-20.23v.1z" fill="url(#ag)" opacity=".5"/>
    <path d="m56.43,62.25c-1.39-1.39-4.48-1.36-5.9,0l-41.03,39.38c-3.74,3.59-.82,6.64.78,8.25l7.36,7.36c1.61,1.6 5.86,3.76 8.88.56l38.72-40.81c1.35-1.42 1.36-4.47 0-5.87 0,0 .01-.02 0-.02l-8.81-8.85z" fill="#3465a4"/>
    <path class="low-shade" d="m10.27,109.87 7.36,7.37c1.61,1.6 5.73,3.89 8.75.71l38.87-40.97c1.35-1.43 1.39-4.5 0-5.88l-8.83-8.84-46.15,47.61z" fill="url(#af)" opacity=".5"/>
    <path class="specularity" d="m51.2,65.7-38.88,38.04c-1.62,1.56-1.07,3.75.1,4.89l4.13,3.97 42.37-43.6-3.92-3.68c-.84-.8-2.8-.57-3.8.38z" fill="url(#ae)" opacity=".5"/>
    <use class="stroke-highlight" width="128" height="128" clip-path="url(#ao)" fill="none" stroke="#fff" stroke-linejoin="round" stroke-opacity=".2" stroke-width="4" xlink:href="#j"/>
    <path d="m120.45,49.26c1.51,1.44 1.8,3.44-.28,5.36l-3.87,3.63c-2.08,1.95-7.52-3.25-5.45-5.19l3.88-3.63c2.07-1.95 4.21-1.61 5.72-.17z" fill="url(#ad)"/>
   </g>
  </g>
  <g transform="matrix(.92298 0 0 1 126.49 68.839)" fill-rule="evenodd" stroke="#000" stroke-width="1.6292">
   <path d="m51.639 328.16c15.558 5.6214-5.618 30.543 12.323 52.523 3.2373 3.966-18.856 0.68126-26.629-21.696-7.559-21.762-0.36897-35.041 14.306-30.827z" fill="#fff"/>
   <path d="m51.639 328.16c15.677 5.6371-13.877 33.276 12.323 52.523 7.3726 5.416-18.856 0.68126-26.629-21.696-7.559-21.762-0.36897-35.041 14.306-30.827z" fill="url(#s)"/>
  </g>
  <g transform="matrix(.91991 -.07521 .08148 .99667 99.876 80.785)" fill-rule="evenodd" stroke="#000" stroke-width="1.6292">
   <path d="m135.69 328.16c-15.677 5.6371 4.615 30.676-12.323 52.523-3.1308 4.0382 18.856 0.68126 26.629-21.696 7.559-21.762 0.36897-35.041-14.306-30.827z" fill="#fff"/>
   <path d="m135.69 328.16c-15.677 5.6371 13.877 33.276-12.323 52.523-7.3726 5.416 18.856 0.68126 26.629-21.696 7.559-21.762 0.36897-35.041-14.306-30.827z" fill="url(#r)"/>
  </g>
  <path d="m146.85 473.42c19.507 1.3958 38.976 4.0716 55.122 5.6323 0.94018-1.5494-3.4785-11.713 0.68991-14.887 1.5398-5.7747 2.2174-10.209 2.325-12.656-5e-3 -7e-3 5e-3 -0.0242 0-0.0313-0.10596-0.14601-0.66635 0.26312-0.79977 0.11883-30.779-5.2858-25.958-37.524-57.337 21.824z" opacity=".2136" stroke="#000" stroke-linecap="round" stroke-linejoin="round" stroke-width="3.8959"/>
  <g transform="translate(99.749 11.52)">
   <path d="m42.813 418.89c-1.1661 0.83346-1.8041 1.7808-2.2812 3.2188h-0.03125l-1.6875 9.25c-0.81342 3.973-1.4015 6.9554-4.1875 22.875l64.219 11.719 4.1875-22.812c0.76728-2.8398 1.0549-6.2087 1.6875-9.2813h-0.0313c0.0159-1.4967-0.0984-2.6894-0.96875-3.8438l-19.656-3.5938c-2.7558-2.6918-6.3041-4.671-10.125-5.375h-0.0625c-3.8131-0.70269-7.8299-0.1056-11.312 1.4688l-19.75-3.625z" stroke="#000" stroke-linecap="round" stroke-linejoin="round" stroke-width="2.018"/>
   <g transform="matrix(.62595 .11432 -.11432 .62595 24.814 53.318)">
    <path d="m128.37 565.74h102.61v14.763h-102.61z" fill="url(#ac)" stroke="#000046" stroke-linecap="round" stroke-linejoin="round" stroke-width=".97091"/>
    <path d="m131.02 560.1h97.3c1.7441 1.6058 2.2451 3.4984 2.6505 5.9648h-102.6c0.30977-2.562 1.002-4.2634 2.6505-5.9648z" fill="url(#ab)" stroke="#004" stroke-linecap="round" stroke-linejoin="round" stroke-width=".97091"/>
    <path d="m128.37 580.6h102.61v36.433h-102.61z" fill="url(#aa)" stroke="#00013d" stroke-linecap="round" stroke-linejoin="round" stroke-width=".97091"/>
    <g transform="translate(-.66529)">
     <path transform="matrix(.18933 0 0 .18933 96.909 484.5)" d="m416.2 487.67h48.487v70.711h-48.487z" fill="#2d2d2d" fill-opacity=".8238" filter="url(#an)"/>
     <path d="m176.09 576.45h9.1802v13.388h-9.1802z" fill="url(#z)" stroke="url(#k)" stroke-linecap="round" stroke-linejoin="round" stroke-opacity=".6425" stroke-width=".48546"/>
     <path transform="matrix(.08929 0 0 .16657 142.12 495.45)" d="m431.84 515.94 7.8855 13.658 7.8855 13.658h-31.542l7.8855-13.658z" fill="#1a1a1a" stroke="url(#y)" stroke-width="7.0014"/>
     <path transform="matrix(.18859 0 0 .17512 97.28 490.47)" d="m449.52 520.52c0 3.9052-2.9397 7.0711-6.566 7.0711s-6.566-3.1658-6.566-7.0711 2.9397-7.0711 6.566-7.0711 6.566 3.1658 6.566 7.0711z" fill="#1a1a1a" stroke="url(#x)" stroke-width="5.1281"/>
    </g>
    <path d="m128.78 565.68 101.69 0.0601" fill="#000080" stroke="#00013d" stroke-linecap="round" stroke-linejoin="round" stroke-width="1.155"/>
    <g transform="translate(-.16938)">
     <path d="m158.97 560.65h9.1802l-1.136 2.4168h-9.1802z" fill="url(#w)" stroke="url(#k)" stroke-linecap="round" stroke-linejoin="round" stroke-opacity=".6425" stroke-width=".48546"/>
     <path d="m200.72 560.65h-9.1802l1.136 2.4168h9.1802z" fill="url(#v)" stroke="url(#k)" stroke-linecap="round" stroke-linejoin="round" stroke-opacity=".6425" stroke-width=".48546"/>
     <path d="m179.84221,554.64995c-6.29079-.01-12.56188,2.15475-17.58427,5.77465-.33183.22843-.56605.59405-.63482.99099s.0288.44139.26442.76814 .6063.17424 1.00465.23432 .81922.33194 1.14074.0892c9.1312-5.70517 22.72061-5.54313 31.7783.0177 .32606.2277.74385-.0589 1.13541-.12845s.75209.0788.97979-.24726 .31977-.36518.25022-.75675-.29987-.75209-.62593-.97979c-5.10845-3.56774-11.3221-5.75303-17.61288-5.76281z" fill="#71481d"/>
     <path transform="matrix(.18933 0 0 .18933 96.909 484.5)" d="m350.52 410.66c56.137-32.9 110.11-35.855 175.4-1.4561" fill="none" filter="url(#am)" stroke="#fff" stroke-linecap="round" stroke-width="2.564"/>
    </g>
   </g>
  </g>
  <path d="m166.17 389.3c0.9228-7.4045 10.578-26.717 19.874-30.626 9.4216-4.2056 15.782-6.9697 22.364-9.8385 2.0657-0.61056 3.5257-0.0807 5.1327 0.17262 14.793 1.7886 22.453 8.2267 31.163 13.981 6.4806 4.4298 14.213 21.617 14.797 26.162-13.661 3.9935-17.005-17.942-47.928-20.564-32.612 1.5283-27.156 21.63-45.403 20.713z" fill="url(#q)" stroke="#000" stroke-width="1.259"/>
  <path d="m213.91 348.66c1.6704 5.0055 2.1932 11.841 2.2311 16.846" fill="none" opacity=".4915" stroke="#000" stroke-dasharray="0.76735715, 0.38367857" stroke-width=".38368"/>
  <path d="m211.05 347.71c1.4855 4.9391 2.2094 12.777 2.781 18.146" fill="none" opacity=".4915" stroke="#000" stroke-dasharray="0.76735715, 0.38367857" stroke-width=".38368"/>
  <path d="m208.41 348.84c1.1631 4.6008 2.0778 11.264 2.781 16.298" fill="none" opacity=".4915" stroke="#000" stroke-dasharray="0.76735715, 0.38367857" stroke-width=".38368"/>
  <path d="m181.5 361.68c-3.6862 4.6215-5.1662 10.074-6.5418 15.566" fill="none" opacity=".4915" stroke="#000" stroke-dasharray="0.76735715, 0.38367857" stroke-width=".38368"/>
  <path d="m240.8 360.43c5.3384 4.9493 13.312 19.329 13.973 24.939" fill="none" opacity=".4915" stroke="#000" stroke-dasharray="0.76735715, 0.38367857" stroke-width=".38368"/>
  <path d="m208.02 348.6c0.32501 1.4324 6.5343 1.6254 6.6302-0.32115 0.12293-2.3847-7.0722-2.3442-6.6302 0.32115z" fill="url(#p)" stroke="#000" stroke-width="1.259"/>
  <g transform="matrix(.9885 0 0 .93076 -328.14 -17.918)">
   <path d="m532.24 400.59c-1.7343 0.11472-2.8776 1.1001-1.5796 1.8175 1.1615-8e-3 3.2681-1.4409 1.5796-1.8175z" filter="url(#n)" opacity=".4102" stroke="#000" stroke-width="1.4"/>
   <path d="m532.57 400.68c-1.0155-0.69394-2.9675 0.89048-2.1187 1.518 0.95181 0.4113 2.7889-0.72214 2.1187-1.518z" fill="#510000" stroke="#ffcdcd" stroke-linecap="round" stroke-linejoin="round"/>
  </g>
  <g transform="matrix(-.9885 0 0 .93076 751.6 -19.349)">
   <path d="m532.24 400.59c-1.7343 0.11472-2.8776 1.1001-1.5796 1.8175 1.1615-8e-3 3.2681-1.4409 1.5796-1.8175z" filter="url(#n)" opacity=".4102" stroke="#000" stroke-width="1.4"/>
   <path d="m532.57 400.68c-1.0155-0.69394-2.9675 0.89048-2.1187 1.518 0.95181 0.4113 2.7889-0.72214 2.1187-1.518z" fill="#510000" stroke="#ffcdcd" stroke-linecap="round" stroke-linejoin="round"/>
  </g>
  <path d="m173.54 386.95c-3.9465 0.96934-5.6959 1.3375-7.1119 1.2437" fill="none" opacity=".4915" stroke="#000" stroke-dasharray="0.76735715, 0.38367857" stroke-width=".38368"/>
  <path d="m173.85 385.89c-5.2751 1.1215-6.0247 1.3665-7.1119 1.2437" fill="none" opacity=".4915" stroke="#000" stroke-dasharray="0.76735715, 0.38367857" stroke-width=".38368"/>
  <g transform="matrix(.99221 .12457 -.12457 .99221 134.81 -17.341)" fill="none" stroke="#000" stroke-dasharray="0.76735715, 0.38367857" stroke-width=".38368">
   <path d="m173.54 386.95c-3.9465 0.96934-5.6959 1.3375-7.1119 1.2437" opacity=".4915"/>
   <path d="m173.85 385.89c-5.2751 1.1215-6.0247 1.3665-7.1119 1.2437" opacity=".4915"/>
  </g>
  <g transform="matrix(.87508 0 0 .91038 27.208 40.755)" stroke="#000" stroke-width="1.0632">
   <path d="m171.75 382c-4.9827 3.0521-7.4097-0.68468-8.3789-3.6196-0.41566-1.1205-1.0335-5.495 8.8658-11.323 27.393-16.134 59.861-16.304 85.367 2.6468 5.6584 4.5244 4.8242 7.7578 3.5369 10.901-1.4221 1.5242-3.9573 2.6308-6.1896 2.8132-17.981-42.692-88.016-22.832-83.201-1.4182z" fill="#e90f0f" stroke-linecap="round" stroke-linejoin="round"/>
   <path d="m174.06 378.81c13.956-22.147 57.882-20.702 77.858 1.2424 1.0291 1.0282 2.0485 2.2417 3.5369 2.8132 2.5136-1.4449 7.2669-3.258 3.6612-9.206-18.106-15.609-57.143-27.571-92.68 0.49696-5.645 4.9516 3.6061 10.784 5.3244 7.4667z" fill="url(#o)"/>
  </g>
  <path d="m177.16 389.15c17.418-15.493 54.109-14.62 73.807 0.55634 8.8403-5.024-13.211-21.409-38.206-21.539-23.296-0.0367-45.704 17.481-35.6 20.982z" filter="url(#al)" opacity=".3085"/>
  <path d="m161.55 430.59c0.835 2.166 0.79681 2.3662 2.0867 3.9374 3.2203 3.7171 13.799 4.0375 16.209 3.1327-1.0993-0.62511-2.5613-2.3942-1.7244-4.7469-8.0398-4.8391-13.591-3.4408-16.572-2.3231z" stroke="#000"/>
  <path d="m176.07 430.38c-0.17145 1.7562-0.43473 6.8005 2.5463 6.2415-1.3913-0.91325-0.24509-4.4762-0.97727-5.0843z" fill="#fff"/>
 </g>
</svg>
